<?xml version="1.0" encoding="UTF-8" standalone="no"?>
<!-- Created with Inkscape (http://www.inkscape.org/) -->

<svg
   width="250mm"
   height="130mm"
   viewBox="2 2 227.27272 118.1818"
   version="1.1"
   id="svg965"
   inkscape:version="1.2.2 (b0a8486541, 2022-12-01)"
   sodipodi:docname="Logos.svg"
   inkscape:export-filename="Logos.jpg"
   inkscape:export-xdpi="300"
   inkscape:export-ydpi="300"
   xmlns:inkscape="http://www.inkscape.org/namespaces/inkscape"
   xmlns:sodipodi="http://sodipodi.sourceforge.net/DTD/sodipodi-0.dtd"
   xmlns="http://www.w3.org/2000/svg"
   xmlns:svg="http://www.w3.org/2000/svg">
  <sodipodi:namedview
     id="namedview967"
     pagecolor="#ffffff"
     bordercolor="#666666"
     borderopacity="1.0"
     inkscape:showpageshadow="2"
     inkscape:pageopacity="0.0"
     inkscape:pagecheckerboard="0"
     inkscape:deskcolor="#d1d1d1"
     inkscape:document-units="mm"
     showgrid="false"
     inkscape:zoom="0.35355339"
     inkscape:cx="-1159.6551"
     inkscape:cy="289.91378"
     inkscape:window-width="2556"
     inkscape:window-height="690"
     inkscape:window-x="0"
     inkscape:window-y="0"
     inkscape:window-maximized="1"
     inkscape:current-layer="layer1" />
  <defs
     id="defs962">
    <marker
       inkscape:stockid="Arrow2Mend"
       orient="auto"
       refY="0"
       refX="0"
       id="marker1079"
       style="overflow:visible"
       inkscape:isstock="true">
      <path
         id="path1077"
         style="fill:#000000;fill-opacity:1;fill-rule:evenodd;stroke:#000000;stroke-width:0.625;stroke-linejoin:round;stroke-opacity:1"
         d="M 8.7185878,4.0337352 -2.2072895,0.01601326 8.7185884,-4.0017078 c -1.7454984,2.3720609 -1.7354408,5.6174519 -6e-7,8.035443 z"
         transform="scale(-0.6)"
         inkscape:connector-curvature="0" />
    </marker>
  </defs>
  <g
     inkscape:label="Ebene 1"
     inkscape:groupmode="layer"
     id="layer1"
     transform="translate(-8.6327133,-4.6724006)">
    <g
       id="g803"
       transform="translate(72.826457,14.609184)">
      <g
         id="g827"
         transform="matrix(0.05692946,0,0,0.05692946,47.545903,71.642968)">
        <path
           transform="matrix(0.38181808,0.66132831,0.66132831,-0.38181808,929.49984,181.93753)"
           inkscape:transform-center-y="-2.376358"
           inkscape:transform-center-x="-12.54909"
           d="m -337.79468,-782.1021 -152.47631,86.77895 -151.39093,-88.65889 1.08538,-175.43784 152.47632,-86.77892 151.39093,88.65887 z"
           inkscape:randomized="0"
           inkscape:rounded="0"
           inkscape:flatsided="true"
           sodipodi:arg2="1.0533842"
           sodipodi:arg1="0.52978542"
           sodipodi:r2="184.66911"
           sodipodi:r1="175.44119"
           sodipodi:cy="-870.76099"
           sodipodi:cx="-489.18561"
           sodipodi:sides="6"
           id="path138-9-6-8"
           style="color:#000000;display:inline;overflow:visible;visibility:visible;opacity:1;fill:none;fill-opacity:1;fill-rule:nonzero;stroke:#808080;stroke-width:22.8213;stroke-linecap:butt;stroke-linejoin:miter;stroke-miterlimit:4;stroke-dasharray:none;stroke-dashoffset:0;stroke-opacity:1;marker:none;enable-background:accumulate"
           sodipodi:type="star" />
        <path
           transform="matrix(0.38181808,0.66132831,0.66132831,-0.38181808,929.49984,181.93753)"
           inkscape:transform-center-y="-2.3763588"
           inkscape:transform-center-x="-12.54909"
           d="m -33.92743,-780.22215 -152.47631,86.77894 -151.39093,-88.65889 1.08538,-175.43783 152.47632,-86.77897 151.390925,88.65891 z"
           inkscape:randomized="0"
           inkscape:rounded="0"
           inkscape:flatsided="true"
           sodipodi:arg2="1.0533842"
           sodipodi:arg1="0.52978542"
           sodipodi:r2="184.66911"
           sodipodi:r1="175.44119"
           sodipodi:cy="-868.88104"
           sodipodi:cx="-185.31836"
           sodipodi:sides="6"
           id="path138-9-6-5-9"
           style="color:#000000;display:inline;overflow:visible;visibility:visible;opacity:1;fill:none;fill-opacity:1;fill-rule:nonzero;stroke:#808080;stroke-width:22.8213;stroke-linecap:butt;stroke-linejoin:miter;stroke-miterlimit:4;stroke-dasharray:none;stroke-dashoffset:0;stroke-opacity:1;marker:none;enable-background:accumulate"
           sodipodi:type="star" />
        <path
           transform="matrix(0.38181808,0.66132831,0.66132831,-0.38181808,929.49984,181.93753)"
           inkscape:transform-center-y="-2.3763582"
           inkscape:transform-center-x="-12.549089"
           d="m -187.48914,-518.00542 -152.47631,86.77895 -151.39093,-88.65889 1.08538,-175.43784 152.47632,-86.77894 151.39093,88.65889 z"
           inkscape:randomized="0"
           inkscape:rounded="0"
           inkscape:flatsided="true"
           sodipodi:arg2="1.0533842"
           sodipodi:arg1="0.52978542"
           sodipodi:r2="184.66911"
           sodipodi:r1="175.44119"
           sodipodi:cy="-606.66431"
           sodipodi:cx="-338.88007"
           sodipodi:sides="6"
           id="path138-9-6-6-2"
           style="color:#000000;display:inline;overflow:visible;visibility:visible;opacity:1;fill:none;fill-opacity:1;fill-rule:nonzero;stroke:#808080;stroke-width:22.8213;stroke-linecap:butt;stroke-linejoin:miter;stroke-miterlimit:4;stroke-dasharray:none;stroke-dashoffset:0;stroke-opacity:1;marker:none;enable-background:accumulate"
           sodipodi:type="star" />
        <g
           transform="matrix(2.2084718,0,0,2.2084718,43.005115,40.265469)"
           id="g825">
          <ellipse
             style="color:#000000;display:inline;overflow:visible;visibility:visible;opacity:1;fill:#9558b2;fill-opacity:1;fill-rule:nonzero;stroke:#9558b2;stroke-width:3.1446;stroke-linecap:butt;stroke-linejoin:miter;stroke-miterlimit:4;stroke-dasharray:none;stroke-dashoffset:0;stroke-opacity:1;marker:none;enable-background:accumulate"
             id="path74-2-9-2-3-6"
             cx="-169.07664"
             cy="-116.494"
             transform="matrix(-0.99815577,-0.06070475,0.06070247,-0.9981559,0,0)"
             rx="34.846375"
             ry="34.847019" />
          <ellipse
             style="color:#000000;display:inline;overflow:visible;visibility:visible;opacity:1;fill:#389826;fill-opacity:1;fill-rule:nonzero;stroke:#389826;stroke-width:3.14362;stroke-linecap:butt;stroke-linejoin:miter;stroke-miterlimit:4;stroke-dasharray:none;stroke-dashoffset:0;stroke-opacity:1;marker:none;enable-background:accumulate"
             id="path74-2-9-3-0-6"
             cx="85.820549"
             cy="-75.880173"
             inkscape:transform-center-x="22.061721"
             inkscape:transform-center-y="-121.05935"
             transform="matrix(0.50031529,0.8658433,-0.86620732,0.49968478,0,0)"
             rx="34.828579"
             ry="34.843216" />
          <ellipse
             style="color:#000000;display:inline;overflow:visible;visibility:visible;opacity:1;fill:#cb3c33;fill-opacity:1;fill-rule:nonzero;stroke:#cb3c33;stroke-width:3.14365;stroke-linecap:butt;stroke-linejoin:miter;stroke-miterlimit:4;stroke-dasharray:none;stroke-dashoffset:0;stroke-opacity:1;marker:none;enable-background:accumulate"
             id="path74-2-9-3-7-4-5-7-4"
             cx="-77.190132"
             cy="115.59838"
             inkscape:transform-center-x="0.94072592"
             inkscape:transform-center-y="-0.094659651"
             transform="matrix(0.53409965,-0.84542153,0.84503369,0.53471306,0,0)"
             rx="34.842144"
             ry="34.830139" />
        </g>
      </g>
      <text
         xml:space="preserve"
         style="font-style:normal;font-weight:normal;font-size:18.9108px;line-height:5.54027px;font-family:Sans;letter-spacing:0px;word-spacing:0px;fill:#1a1a1a;fill-opacity:1;stroke:none;stroke-width:0.221611px;stroke-linecap:butt;stroke-linejoin:miter;stroke-opacity:1"
         x="82.872093"
         y="94.988106"
         id="text819"><tspan
           sodipodi:role="line"
           id="tspan817"
           x="82.872093"
           y="94.988106"
           style="font-style:normal;font-variant:normal;font-weight:normal;font-stretch:normal;font-size:18.9108px;font-family:'Tamil MN';-inkscape-font-specification:'Tamil MN';fill:#1a1a1a;stroke-width:0.221611px">DFTK</tspan></text>
    </g>
    <text
       xml:space="preserve"
       style="font-weight:bold;font-size:10.5833px;line-height:1.25;font-family:sans-serif;-inkscape-font-specification:'sans-serif Bold';stroke-width:0.264583"
       x="167.97447"
       y="70.627892"
       id="text779"><tspan
         sodipodi:role="line"
         id="tspan777"
         style="stroke-width:0.264583"
         x="167.97447"
         y="70.627892">Wannier</tspan></text>
    <text
       xml:space="preserve"
       style="font-weight:bold;font-size:10.5833px;line-height:1.25;font-family:sans-serif;-inkscape-font-specification:'sans-serif Bold';stroke-width:0.264583"
       x="38.426109"
       y="111.65859"
       id="text783"><tspan
         sodipodi:role="line"
         id="tspan781"
         style="stroke-width:0.264583"
         x="38.426109"
         y="111.65859">Molly</tspan></text>
    <text
       xml:space="preserve"
       style="font-weight:bold;font-size:10.5833px;line-height:1.25;font-family:sans-serif;-inkscape-font-specification:'sans-serif Bold';stroke-width:0.264583"
       x="153.21463"
       y="35.240395"
       id="text791"><tspan
         sodipodi:role="line"
         id="tspan789"
         style="stroke-width:0.264583"
         x="153.21463"
         y="35.240395">AtomsBase</tspan></text>
    <text
       xml:space="preserve"
       style="font-weight:bold;font-size:10.5833px;line-height:1.25;font-family:sans-serif;-inkscape-font-specification:'sans-serif Bold';stroke-width:0.264583"
       x="29.008005"
       y="62.014465"
       id="text791-5"><tspan
         sodipodi:role="line"
         id="tspan789-3"
         style="stroke-width:0.264583"
         x="29.008005"
         y="62.014465">ACE</tspan></text>
    <g
       id="g331"
       transform="matrix(0.33017151,0,0,0.33017153,54.717526,29.481465)">
      <path
         d="M 58.23,157.031 V 74.938 l -24.32,6.691 v 87.297 c 0,4.605 -0.351,7.699 -1.062,9.293 -0.707,1.593 -1.735,2.39 -3.078,2.39 -0.637,0 -1.344,-0.246 -2.125,-0.742 -0.778,-0.496 -1.735,-1.488 -2.868,-2.976 -0.992,-1.344 -2.246,-2.707 -3.769,-4.086 -1.524,-1.383 -3.559,-2.071 -6.106,-2.071 -3.398,0 -6.109,0.848 -8.125,2.547 -2.019,1.699 -3.027,3.789 -3.027,6.266 0,2.973 1.805,5.523 5.418,7.648 3.609,2.121 8.812,3.184 15.609,3.184 5.028,0 9.594,-0.406 13.7,-1.219 4.109,-0.816 7.628,-2.426 10.566,-4.832 2.941,-2.41 5.207,-5.789 6.797,-10.144 1.594,-4.352 2.39,-10.071 2.39,-17.153 z"
         style="fill:#252525;fill-opacity:1;fill-rule:nonzero;stroke:none"
         id="path333" />
      <path
         d="M 92.008,77.273 H 67.797 v 56.184 c 0,3.469 0.723,6.727 2.176,9.77 1.453,3.043 3.453,5.699 6,7.964 2.55,2.266 5.523,4.055 8.922,5.364 3.398,1.308 7.078,1.965 11.043,1.965 3.398,0 6.906,-0.817 10.515,-2.442 3.609,-1.629 7.008,-3.789 10.195,-6.48 v 7.433 h 24.215 V 77.273 h -24.215 v 57.563 c -1.839,2.832 -4,5.187 -6.48,7.062 -2.477,1.875 -4.637,2.817 -6.477,2.817 -1.629,0 -3.152,-0.301 -4.566,-0.906 -1.418,-0.602 -2.656,-1.399 -3.719,-2.387 -1.058,-0.992 -1.89,-2.18 -2.492,-3.559 -0.605,-1.379 -0.906,-2.851 -0.906,-4.406 z"
         style="fill:#252525;fill-opacity:1;fill-rule:nonzero;stroke:none"
         id="path335" />
      <path
         d="M 174.508,157.031 V 38.512 l -24.11,6.691 v 111.828 z"
         style="fill:#252525;fill-opacity:1;fill-rule:nonzero;stroke:none"
         id="path337" />
      <path
         d="m 184.148,81.629 v 75.402 h 24.215 V 74.938 Z"
         style="fill:#252525;fill-opacity:1;fill-rule:nonzero;stroke:none"
         id="path339" />
      <path
         d="m 259.457,115.828 v 23.043 c -2.477,1.844 -4.727,3.363 -6.742,4.567 -2.02,1.207 -4.02,1.808 -6.004,1.808 -0.988,0 -1.91,-0.301 -2.758,-0.906 -0.851,-0.602 -1.629,-1.395 -2.34,-2.387 -0.707,-0.992 -1.254,-2.18 -1.644,-3.558 -0.391,-1.379 -0.582,-2.813 -0.582,-4.301 0,-1.91 0.601,-3.754 1.804,-5.524 1.204,-1.769 2.778,-3.433 4.727,-4.992 1.945,-1.555 4.105,-2.988 6.477,-4.301 2.371,-1.308 4.726,-2.461 7.062,-3.449 z m 24.32,41.203 V 97.242 c 0,-3.328 -0.636,-6.336 -1.91,-9.027 -1.277,-2.692 -3.258,-4.992 -5.949,-6.903 -2.691,-1.914 -6.106,-3.382 -10.25,-4.41 -4.141,-1.023 -9.078,-1.539 -14.813,-1.539 -4.671,0 -9.097,0.496 -13.277,1.489 -4.176,0.992 -7.859,2.336 -11.043,4.035 -3.187,1.699 -5.719,3.734 -7.594,6.105 -1.875,2.371 -2.816,4.938 -2.816,7.699 0,2.977 1.063,5.434 3.187,7.383 2.126,1.946 4.887,2.922 8.286,2.922 2.195,0 4.015,-0.32 5.468,-0.957 1.45,-0.637 2.567,-1.488 3.344,-2.551 0.781,-1.062 1.328,-2.3 1.649,-3.715 0.316,-1.418 0.476,-2.867 0.476,-4.355 0,-2.621 0.742,-4.848 2.231,-6.691 1.488,-1.84 4.14,-2.762 7.964,-2.762 3.258,0 5.86,1.062 7.805,3.187 1.949,2.125 2.922,5.735 2.922,10.832 v 7.86 l -2.656,0.636 c -3.254,0.993 -6.547,2.036 -9.875,3.133 -3.328,1.098 -6.531,2.301 -9.614,3.614 -3.078,1.308 -5.964,2.742 -8.652,4.3 -2.691,1.555 -5.047,3.328 -7.062,5.309 -2.02,1.984 -3.614,4.211 -4.782,6.691 -1.168,2.477 -1.75,5.239 -1.75,8.282 0,2.976 0.547,5.718 1.645,8.234 1.098,2.512 2.672,4.687 4.727,6.531 2.05,1.84 4.546,3.289 7.488,4.352 2.937,1.062 6.246,1.594 9.929,1.594 2.688,0 5.024,-0.196 7.008,-0.582 1.981,-0.391 3.77,-0.942 5.364,-1.649 1.593,-0.707 3.027,-1.539 4.3,-2.496 1.274,-0.953 2.586,-2 3.93,-3.133 v 6.371 z"
         style="fill:#252525;fill-opacity:1;fill-rule:nonzero;stroke:none"
         id="path341" />
      <g
         id="g343"
         transform="scale(1,-1)">
        <path
           d="m 60.789,-53.906 c 0,8.281 -6.715,15 -15,15 -8.285,0 -15,-6.719 -15,-15 0,-8.285 6.715,-15 15,-15 8.285,0 15,6.715 15,15 z"
           style="fill:#6682df;fill-opacity:1;fill-rule:nonzero;stroke:#4063d8;stroke-width:2.87842;stroke-linecap:butt;stroke-linejoin:miter;stroke-miterlimit:4;stroke-dasharray:none;stroke-opacity:1"
           id="path345" />
      </g>
      <g
         id="g347"
         transform="scale(1,-1)">
        <path
           d="m 212.934,-53.906 c 0,8.281 -6.715,15 -15,15 -8.282,0 -15,-6.719 -15,-15 0,-8.285 6.718,-15 15,-15 8.285,0 15,6.715 15,15 z"
           style="fill:#d5635c;fill-opacity:1;fill-rule:nonzero;stroke:#cb3c33;stroke-width:2.87842;stroke-linecap:butt;stroke-linejoin:miter;stroke-miterlimit:4;stroke-dasharray:none;stroke-opacity:1"
           id="path349" />
      </g>
      <g
         id="g351"
         transform="scale(1,-1)">
        <path
           d="m 232.621,-20.156 c 0,8.281 -6.715,15 -15,15 -8.281,0 -15,-6.719 -15,-15 0,-8.285 6.719,-15 15,-15 8.285,0 15,6.715 15,15 z"
           style="fill:#60ad51;fill-opacity:1;fill-rule:nonzero;stroke:#389826;stroke-width:2.87842;stroke-linecap:butt;stroke-linejoin:miter;stroke-miterlimit:4;stroke-dasharray:none;stroke-opacity:1"
           id="path353" />
      </g>
      <g
         id="g355"
         transform="scale(1,-1)">
        <path
           d="m 252.309,-53.906 c 0,8.281 -6.715,15 -15,15 -8.282,0 -15,-6.719 -15,-15 0,-8.285 6.718,-15 15,-15 8.285,0 15,6.715 15,15 z"
           style="fill:#aa79c1;fill-opacity:1;fill-rule:nonzero;stroke:#9558b2;stroke-width:2.87842;stroke-linecap:butt;stroke-linejoin:miter;stroke-miterlimit:4;stroke-dasharray:none;stroke-opacity:1"
           id="path357" />
      </g>
    </g>
    <g
       id="g837"
       transform="matrix(0.70405626,0,0,0.70405626,16.402567,-0.02628675)">
      <text
         xml:space="preserve"
         style="font-style:normal;font-weight:normal;font-size:19.9135px;line-height:5.83402px;font-family:Sans;letter-spacing:0px;word-spacing:0px;fill:#1a1a1a;fill-opacity:1;stroke:none;stroke-width:0.233361px;stroke-linecap:butt;stroke-linejoin:miter;stroke-opacity:1"
         x="56.293884"
         y="37.470341"
         id="text819-6"><tspan
           sodipodi:role="line"
           id="tspan817-7"
           x="56.293884"
           y="37.470341"
           style="font-style:normal;font-variant:normal;font-weight:normal;font-stretch:normal;font-size:19.9135px;font-family:'Tamil MN';-inkscape-font-specification:'Tamil MN';fill:#1a1a1a;stroke-width:0.233361px">JuliaMolsim</tspan></text>
      <g
         inkscape:label="Layer 1"
         id="layer1-3"
         transform="matrix(0.96469405,0,0,0.96469405,-63.922954,-68.25825)">
        <flowRoot
           xml:space="preserve"
           id="flowRoot4825"
           style="font-style:normal;font-weight:normal;font-size:16px;line-height:1.25;font-family:sans-serif;letter-spacing:0px;word-spacing:0px;fill:#000000;fill-opacity:1;stroke:none"><flowRegion
             id="flowRegion4827"><rect
               id="rect4829"
               width="486.99423"
               height="331.26166"
               x="221.72095"
               y="296.34518" /></flowRegion><flowPara
             id="flowPara4831" /></flowRoot>
        <g
           id="g961"
           inkscape:export-xdpi="300"
           inkscape:export-ydpi="300">
          <rect
             y="-12.959892"
             x="130.04843"
             height="27.234127"
             width="27.234131"
             id="rect1112"
             style="fill:none;fill-opacity:0.482587;stroke:#000000;stroke-width:0.263134;stroke-miterlimit:4;stroke-dasharray:none;stroke-dashoffset:0;stroke-opacity:1"
             transform="rotate(44.777411)"
             ry="9.2780676" />
          <path
             d="m 106.73229,104.1899 c 1.36069,0.21064 2.6347,-0.72177 2.84536,-2.08255 0.21067,-1.36078 -0.72176,-2.634761 -2.08245,-2.845401 -1.36094,-0.21068 -2.63482,0.721753 -2.84549,2.082531 -0.21066,1.36079 0.72164,2.63474 2.08258,2.84542"
             style="fill:#d2b0db;fill-opacity:1;fill-rule:nonzero;stroke:none;stroke-width:0.0127524"
             id="path1114"
             inkscape:connector-curvature="0" />
          <path
             d="m 106.73229,104.1899 -0.0293,0.18904 c 1.46531,0.2267 2.83669,-0.77709 3.06366,-2.24233 0.22673,-1.4654 -0.77694,-2.83686 -2.24221,-3.063821 -1.46543,-0.226724 -2.83695,0.777051 -3.06393,2.242411 -0.22671,1.46528 0.77708,2.83676 2.24248,3.06374 l 0.0293,-0.18904 0.0293,-0.18916 c -0.62897,-0.0975 -1.15709,-0.43965 -1.50554,-0.91543 -0.34816,-0.476 -0.5145,-1.08282 -0.41729,-1.71156 0.0975,-0.62883 0.43952,-1.15696 0.91531,-1.5054 0.47601,-0.34815 1.08284,-0.514487 1.71187,-0.417369 0.6287,0.09758 1.15684,0.43962 1.50529,0.915399 0.34816,0.47599 0.5145,1.08282 0.41727,1.71169 -0.0975,0.6287 -0.4395,1.15683 -0.91529,1.50527 -0.47601,0.34815 -1.08287,0.51461 -1.71162,0.4174 l -0.0293,0.18916"
             style="fill:#c59fd2;fill-opacity:1;fill-rule:nonzero;stroke:none;stroke-width:0.0127524"
             id="path1116"
             inkscape:connector-curvature="0" />
          <path
             inkscape:connector-curvature="0"
             id="path1118"
             style="fill:#a967ba;fill-opacity:1;fill-rule:nonzero;stroke:none;stroke-width:0.0127524"
             d="m 108.73492,104.1422 c 1.36068,0.21064 2.63469,-0.72177 2.84536,-2.08256 0.21066,-1.36078 -0.72177,-2.634756 -2.08246,-2.845397 -1.36094,-0.210679 -2.63482,0.721752 -2.84549,2.082537 -0.21066,1.36078 0.72165,2.63474 2.08259,2.84542" />
          <path
             inkscape:connector-curvature="0"
             id="path1120"
             style="fill:#8f45a8;fill-opacity:1;fill-rule:nonzero;stroke:none;stroke-width:0.0127524"
             d="m 108.73492,104.1422 -0.0293,0.18903 c 1.46531,0.22671 2.8367,-0.77709 3.06366,-2.24232 0.22673,-1.4654 -0.77694,-2.836866 -2.24221,-3.063825 -1.46543,-0.226727 -2.83694,0.777048 -3.06393,2.242405 -0.22671,1.46528 0.77709,2.83676 2.24248,3.06374 l 0.0293,-0.18903 0.0293,-0.18916 c -0.62897,-0.0975 -1.15709,-0.43966 -1.50554,-0.91544 -0.34816,-0.47599 -0.5145,-1.08282 -0.41729,-1.71156 0.0975,-0.62883 0.43952,-1.15695 0.91531,-1.505395 0.47601,-0.348151 1.08285,-0.514487 1.71188,-0.417369 0.62869,0.09758 1.15683,0.439619 1.50528,0.915394 0.34816,0.476 0.5145,1.08282 0.41727,1.71169 -0.0975,0.6287 -0.4395,1.15683 -0.91529,1.50527 -0.476,0.34815 -1.08286,0.51461 -1.71162,0.41741 l -0.0293,0.18916" />
          <path
             inkscape:connector-curvature="0"
             id="path1126"
             d="M 92.02389,101.70425 H 99.7023"
             style="fill:none;stroke:#000000;stroke-width:0.233392;stroke-linecap:butt;stroke-linejoin:miter;stroke-miterlimit:4;stroke-dasharray:none;stroke-opacity:1;marker-end:url(#marker1079)"
             sodipodi:nodetypes="cc" />
          <path
             inkscape:connector-curvature="0"
             id="path1128"
             style="fill:#6a78c4;fill-opacity:1;fill-rule:nonzero;stroke:none;stroke-width:0.0127539"
             d="m 89.910594,103.44026 c 0.959956,0.98745 2.538696,1.0097 3.526149,0.0498 0.987453,-0.95996 1.00978,-2.53869 0.04982,-3.526145 -0.959965,-0.987461 -2.538731,-1.009744 -3.526184,-0.04979 -0.987453,0.959955 -1.009754,2.538715 -0.04979,3.526185" />
          <path
             inkscape:connector-curvature="0"
             id="path1130"
             style="fill:#4c5cb3;fill-opacity:1;fill-rule:nonzero;stroke:none;stroke-width:0.0127539"
             d="m 89.910594,103.44026 -0.137171,0.13335 c 1.033773,1.0632 2.733374,1.08719 3.796734,0.0536 1.063257,-1.03384 1.087264,-2.73344 0.05367,-3.796815 -1.033809,-1.063238 -2.733409,-1.087227 -3.796826,-0.05355 -1.063201,1.033715 -1.087207,2.733315 -0.05358,3.796735 l 0.137171,-0.13335 0.137263,-0.13344 c -0.443481,-0.45637 -0.659307,-1.04761 -0.651169,-1.63736 0.0085,-0.58971 0.240956,-1.17454 0.697118,-1.61814 0.456395,-0.443545 1.047552,-0.659362 1.637269,-0.651243 0.589748,0.0085 1.174565,0.241038 1.618321,0.697143 0.443354,0.45642 0.659271,1.04756 0.651169,1.63735 -0.0086,0.58968 -0.240992,1.1745 -0.697245,1.61819 -0.456304,0.44346 -1.04746,0.65928 -1.637142,0.65119 -0.589783,-0.009 -1.174692,-0.24098 -1.618321,-0.69713 l -0.137263,0.13344" />
          <path
             transform="rotate(-150.17137)"
             d="m -144.24865,-30.129393 a 3.9289012,3.9289012 0 0 1 -4.46575,-1.74371 3.9289012,3.9289012 0 0 1 0.54465,-4.76307"
             sodipodi:end="3.9116453"
             sodipodi:start="1.2868568"
             sodipodi:ry="3.9289012"
             sodipodi:rx="3.9289012"
             sodipodi:cy="-33.900978"
             sodipodi:cx="-145.34929"
             sodipodi:type="arc"
             id="path1134"
             style="fill:none;fill-opacity:1;fill-rule:nonzero;stroke:#000000;stroke-width:0.211912;stroke-linecap:round;stroke-linejoin:miter;stroke-miterlimit:4;stroke-dasharray:none;stroke-dashoffset:0;stroke-opacity:1;paint-order:markers stroke fill"
             sodipodi:open="true"
             sodipodi:arc-type="arc" />
          <path
             sodipodi:open="true"
             style="fill:none;fill-opacity:1;fill-rule:nonzero;stroke:#000000;stroke-width:0.211912;stroke-linecap:round;stroke-linejoin:miter;stroke-miterlimit:4;stroke-dasharray:none;stroke-dashoffset:0;stroke-opacity:1;paint-order:markers stroke fill"
             id="path1136"
             sodipodi:type="arc"
             sodipodi:cx="-145.36069"
             sodipodi:cy="-33.922935"
             sodipodi:rx="5.4468632"
             sodipodi:ry="5.4468632"
             sodipodi:start="1.2868568"
             sodipodi:end="3.9116453"
             d="m -143.83481,-28.694169 a 5.4468632,5.4468632 0 0 1 -6.19113,-2.417406 5.4468632,5.4468632 0 0 1 0.75509,-6.60332"
             transform="rotate(-150.17137)"
             sodipodi:arc-type="arc" />
          <path
             inkscape:connector-curvature="0"
             id="path1142"
             style="fill:#eaa2a6;fill-opacity:1;fill-rule:nonzero;stroke:none;stroke-width:0.0127524"
             d="m 101.89925,104.69517 c -1.36069,-0.21064 -2.634696,0.72177 -2.845364,2.08255 -0.210661,1.36079 0.721764,2.63476 2.082454,2.8454 1.36094,0.21068 2.63482,-0.72175 2.84548,-2.08253 0.21067,-1.36079 -0.72164,-2.63474 -2.08257,-2.84542" />
          <path
             inkscape:connector-curvature="0"
             id="path1144"
             style="fill:#e59393;fill-opacity:1;fill-rule:nonzero;stroke:none;stroke-width:0.0127524"
             d="m 101.89921,104.69517 0.0292,-0.18904 c -1.4653,-0.2267 -2.836697,0.77709 -3.063658,2.24233 -0.226733,1.4654 0.77694,2.83686 2.242208,3.06382 1.46543,0.22672 2.83694,-0.77705 3.06393,-2.24241 0.22671,-1.46527 -0.77708,-2.83676 -2.24248,-3.06374 l -0.0292,0.18904 -0.0293,0.18916 c 0.62896,0.0975 1.15709,0.43966 1.50553,0.91543 0.34816,0.47599 0.5145,1.08282 0.41729,1.71156 -0.0975,0.62883 -0.43952,1.15696 -0.91531,1.5054 -0.476,0.34816 -1.08284,0.51449 -1.71187,0.41737 -0.6287,-0.0976 -1.15684,-0.43962 -1.505284,-0.91539 -0.348159,-0.47601 -0.5145,-1.08283 -0.417272,-1.7117 0.09746,-0.6287 0.439504,-1.15682 0.915296,-1.50526 0.476,-0.34816 1.08286,-0.51462 1.71162,-0.41741 l 0.0293,-0.18916" />
          <path
             d="m 99.505857,97.762726 c 0.813263,1.111182 2.373313,1.352782 3.484593,0.539446 1.11118,-0.813263 1.3526,-2.373343 0.53934,-3.484522 -0.81318,-1.111075 -2.37323,-1.352675 -3.48442,-0.539417 -1.111274,0.813337 -1.352697,2.373414 -0.539513,3.484493"
             style="fill:#a8d89d;fill-opacity:1;fill-rule:nonzero;stroke:none;stroke-width:0.0127523"
             id="path1146"
             inkscape:connector-curvature="0" />
          <path
             d="m 99.505853,97.762726 -0.154473,0.113036 c 0.87587,1.196517 2.55544,1.456528 3.7521,0.580857 1.19642,-0.875799 1.45643,-2.555359 0.58075,-3.75203 -0.87572,-1.19631 -2.55536,-1.456421 -3.751922,-0.580828 -1.196513,0.875873 -1.456446,2.555541 -0.580928,3.752001 l 0.154473,-0.113036 0.154443,-0.113065 c -0.375744,-0.513397 -0.507229,-1.128772 -0.417189,-1.711583 0.0904,-0.582758 0.401872,-1.129466 0.915303,-1.505397 0.51347,-0.375646 1.12877,-0.507233 1.71158,-0.417189 0.58286,0.09032 1.12957,0.401794 1.50542,0.915116 0.37573,0.513579 0.50739,1.128982 0.41717,1.711765 -0.0903,0.582861 -0.4018,1.129569 -0.91519,1.505322 -0.51351,0.375823 -1.1288,0.507411 -1.71169,0.417268 -0.58268,-0.0903 -1.12957,-0.401798 -1.505404,-0.915302 l -0.154443,0.113065"
             style="fill:#9dce9a;fill-opacity:1;fill-rule:nonzero;stroke:none;stroke-width:0.0127523"
             id="path1148"
             inkscape:connector-curvature="0" />
          <path
             d="m 101.89925,106.7056 c -1.36069,-0.21065 -2.634694,0.72177 -2.845363,2.08255 -0.21066,1.36078 0.721769,2.63476 2.082463,2.8454 1.36093,0.21068 2.63482,-0.72175 2.84548,-2.08253 0.21067,-1.36079 -0.72164,-2.63475 -2.08258,-2.84542"
             style="fill:#d64c53;fill-opacity:1;fill-rule:nonzero;stroke:none;stroke-width:0.0127524"
             id="path1150"
             inkscape:connector-curvature="0" />
          <path
             d="m 101.89919,106.7056 0.0293,-0.18904 c -1.46531,-0.2267 -2.836702,0.77709 -3.063664,2.24233 -0.226734,1.4654 0.776939,2.83686 2.242204,3.06382 1.46544,0.22673 2.83695,-0.77705 3.06394,-2.24241 0.22671,-1.46528 -0.77709,-2.83676 -2.24248,-3.06374 l -0.0293,0.18904 -0.0293,0.18915 c 0.62897,0.0975 1.15709,0.43966 1.50554,0.91544 0.34815,0.47599 0.51449,1.08282 0.41729,1.71156 -0.0975,0.62883 -0.43953,1.15696 -0.91532,1.5054 -0.476,0.34815 -1.08284,0.51449 -1.71187,0.41737 -0.6287,-0.0976 -1.15684,-0.43962 -1.505284,-0.9154 -0.348158,-0.476 -0.514496,-1.08282 -0.41727,-1.71169 0.09746,-0.6287 0.439504,-1.15683 0.915294,-1.50527 0.476,-0.34815 1.08286,-0.51461 1.71162,-0.41741 l 0.0293,-0.18915"
             style="fill:#cd2e2f;fill-opacity:1;fill-rule:nonzero;stroke:none;stroke-width:0.0127524"
             id="path1152"
             inkscape:connector-curvature="0" />
          <path
             inkscape:connector-curvature="0"
             id="path1156"
             style="fill:#56b342;fill-opacity:1;fill-rule:nonzero;stroke:none;stroke-width:0.0127523"
             d="m 99.505836,95.712157 c 0.813264,1.111179 2.373314,1.352778 3.484594,0.539442 1.11118,-0.81326 1.3526,-2.373338 0.53934,-3.484517 -0.81319,-1.111076 -2.37324,-1.352675 -3.48442,-0.539415 -1.111277,0.813336 -1.352698,2.373414 -0.539514,3.48449" />
          <path
             inkscape:connector-curvature="0"
             id="path1158"
             style="fill:#3b9c3b;fill-opacity:1;fill-rule:nonzero;stroke:none;stroke-width:0.0127523"
             d="m 99.505836,95.712157 -0.154462,0.113049 c 0.875876,1.196515 2.555436,1.456525 3.752106,0.580855 1.19641,-0.8758 1.45642,-2.555363 0.58075,-3.752028 -0.87572,-1.19631 -2.55536,-1.456422 -3.751924,-0.580827 -1.196516,0.875875 -1.45645,2.55554 -0.580932,3.752 l 0.154462,-0.113049 0.154462,-0.113049 c -0.37575,-0.513398 -0.507233,-1.128771 -0.417192,-1.711583 0.0904,-0.582758 0.401872,-1.129467 0.915294,-1.505396 0.51348,-0.375647 1.12877,-0.507234 1.71159,-0.417192 0.58286,0.09032 1.12957,0.401796 1.50542,0.915119 0.37572,0.513576 0.50738,1.128976 0.41716,1.711762 -0.0903,0.58286 -0.40179,1.129569 -0.91519,1.505319 -0.5135,0.375826 -1.1288,0.507412 -1.71169,0.417268 -0.58268,-0.09029 -1.12957,-0.401796 -1.505392,-0.915297 l -0.154462,0.113049" />
          <path
             sodipodi:open="true"
             style="fill:none;fill-opacity:1;fill-rule:nonzero;stroke:#000000;stroke-width:0.211912;stroke-linecap:round;stroke-linejoin:miter;stroke-miterlimit:4;stroke-dasharray:none;stroke-dashoffset:0;stroke-opacity:1;paint-order:markers stroke fill"
             id="path1162"
             sodipodi:type="arc"
             sodipodi:cx="32.841805"
             sodipodi:cy="-134.47546"
             sodipodi:rx="3.9289012"
             sodipodi:ry="3.9289012"
             sodipodi:start="1.2868568"
             sodipodi:end="3.9116453"
             d="m 33.942445,-130.70388 a 3.9289012,3.9289012 0 0 1 -4.465754,-1.74371 3.9289012,3.9289012 0 0 1 0.544657,-4.76307"
             transform="rotate(119.08548)"
             sodipodi:arc-type="arc" />
          <path
             transform="rotate(119.08548)"
             d="m 34.361759,-129.25881 a 5.4468632,5.4468632 0 0 1 -6.191134,-2.41741 5.4468632,5.4468632 0 0 1 0.75509,-6.60332"
             sodipodi:end="3.9116453"
             sodipodi:start="1.2868568"
             sodipodi:ry="5.4468632"
             sodipodi:rx="5.4468632"
             sodipodi:cy="-134.48758"
             sodipodi:cx="32.835876"
             sodipodi:type="arc"
             id="path1164"
             style="fill:none;fill-opacity:1;fill-rule:nonzero;stroke:#000000;stroke-width:0.211912;stroke-linecap:round;stroke-linejoin:miter;stroke-miterlimit:4;stroke-dasharray:none;stroke-dashoffset:0;stroke-opacity:1;paint-order:markers stroke fill"
             sodipodi:open="true"
             sodipodi:arc-type="arc" />
          <path
             transform="matrix(-0.52717326,-0.84975782,-0.84975782,0.52717326,0,0)"
             d="m -145.2786,-24.834202 a 3.9289012,3.9289012 0 0 1 -4.46576,-1.74371 3.9289012,3.9289012 0 0 1 0.54466,-4.76307"
             sodipodi:end="3.9116453"
             sodipodi:start="1.2868568"
             sodipodi:ry="3.9289012"
             sodipodi:rx="3.9289012"
             sodipodi:cy="-28.605787"
             sodipodi:cx="-146.37924"
             sodipodi:type="arc"
             id="path1166"
             style="fill:none;fill-opacity:1;fill-rule:nonzero;stroke:#000000;stroke-width:0.211912;stroke-linecap:round;stroke-linejoin:miter;stroke-miterlimit:4;stroke-dasharray:none;stroke-dashoffset:0;stroke-opacity:1;paint-order:markers stroke fill"
             sodipodi:open="true"
             sodipodi:arc-type="arc" />
          <path
             sodipodi:open="true"
             style="fill:none;fill-opacity:1;fill-rule:nonzero;stroke:#000000;stroke-width:0.211912;stroke-linecap:round;stroke-linejoin:miter;stroke-miterlimit:4;stroke-dasharray:none;stroke-dashoffset:0;stroke-opacity:1;paint-order:markers stroke fill"
             id="path1168"
             sodipodi:type="arc"
             sodipodi:cx="-146.39064"
             sodipodi:cy="-28.627748"
             sodipodi:rx="5.4468632"
             sodipodi:ry="5.4468632"
             sodipodi:start="1.2868568"
             sodipodi:end="3.9116453"
             d="m -144.86476,-23.398982 a 5.4468632,5.4468632 0 0 1 -6.19113,-2.417406 5.4468632,5.4468632 0 0 1 0.75509,-6.60332"
             transform="matrix(-0.52717326,-0.84975782,-0.84975782,0.52717326,0,0)"
             sodipodi:arc-type="arc" />
        </g>
      </g>
    </g>
  </g>
</svg>
